<?xml version="1.0" encoding="UTF-8"?>
<svg width="20px" height="20px" viewBox="0 0 20 20" version="1.1" xmlns="http://www.w3.org/2000/svg" xmlns:xlink="http://www.w3.org/1999/xlink">
    <title>26FDF864-8A66-46C2-B946-3CAA712C369C</title>
    <defs>
        <polygon id="path-1" points="0 0 4.9999 0 4.9999 4.346 0 4.346"></polygon>
        <polygon id="path-3" points="0 2.66453526e-15 4.9999 2.66453526e-15 4.9999 4.346 0 4.346"></polygon>
    </defs>
    <g id="🎨-Diseño-UI-Movil" stroke="none" stroke-width="1" fill="none" fill-rule="evenodd">
        <g id="Iconos" transform="translate(-31.000000, -106.000000)">
            <g id="Group-21" transform="translate(31.000000, 106.000000)">
                <path d="M10.0029,10.0713 C10.0359,9.7973 9.8419,9.5473 9.5669,9.5133 C9.2959,9.4803 9.0439,9.6743 9.0099,9.9483 C9.0069,9.9743 8.6919,12.5063 8.3649,13.5823 C7.8859,15.1553 7.1549,16.0133 7.1489,16.0223 C6.9679,16.2303 6.9899,16.5463 7.1979,16.7273 C7.2929,16.8093 7.4099,16.8493 7.5259,16.8493 C7.6649,16.8493 7.8029,16.7923 7.9019,16.6793 C7.9379,16.6383 8.7749,15.6673 9.3209,13.8733 C9.6739,12.7153 9.9889,10.1783 10.0029,10.0713" id="Fill-1" fill="#020203"></path>
                <path d="M12.8056,7.5566 C12.4596,7.0626 11.4466,5.9146 9.5066,5.9146 C7.4166,5.9146 6.3126,7.3276 5.8396,8.1696 C5.3246,9.0896 5.3856,10.2286 5.4266,10.9826 C5.4346,11.1326 5.4426,11.2626 5.4426,11.3676 C5.4426,11.8276 5.3286,12.0726 5.1786,12.3966 C5.0836,12.6026 4.4606,13.6426 4.0896,14.2506 C3.9466,14.4866 4.0206,14.7936 4.2566,14.9376 C4.4926,15.0816 4.7996,15.0066 4.9436,14.7706 C5.1086,14.5006 5.9396,13.1356 6.1046,12.7756 C6.2556,12.4516 6.4426,12.0476 6.4426,11.3676 C6.4426,11.2476 6.4346,11.0986 6.4256,10.9286 C6.3906,10.2896 6.3386,9.3256 6.7116,8.6596 C7.0766,8.0076 7.9266,6.9146 9.5066,6.9146 C10.9766,6.9146 11.7306,7.7646 11.9866,8.1296 C12.1156,8.3146 12.7576,9.3086 12.6596,10.6646 C12.5576,12.0606 12.4166,13.2156 12.0626,14.3086 C11.6666,15.5316 11.3666,15.9586 11.3676,15.9586 C11.2006,16.1796 11.2436,16.4926 11.4646,16.6596 C11.5546,16.7276 11.6606,16.7606 11.7656,16.7606 C11.9166,16.7606 12.0666,16.6916 12.1646,16.5616 C12.2036,16.5096 12.5626,16.0126 13.0136,14.6176 C13.4226,13.3576 13.5636,12.0086 13.6566,10.7376 C13.7516,9.4256 13.2796,8.2336 12.8056,7.5566" id="Fill-3" fill="#020203"></path>
                <path d="M16.3544,10.8252 C16.6304,10.8492 16.8724,10.6452 16.8964,10.3702 C16.9144,10.1562 16.9234,9.9392 16.9234,9.7212 C16.9234,5.6302 13.5964,2.3032 9.5064,2.3032 C5.4164,2.3032 2.0884,5.6302 2.0884,9.7212 C2.0884,10.0482 2.1104,10.3712 2.1514,10.6882 C2.1844,10.9402 2.3994,11.1232 2.6464,11.1232 C2.6674,11.1232 2.6894,11.1212 2.7114,11.1182 C2.9854,11.0832 3.1784,10.8322 3.1434,10.5582 C3.1074,10.2842 3.0884,10.0042 3.0884,9.7212 C3.0884,6.1822 5.9674,3.3032 9.5064,3.3032 C13.0444,3.3032 15.9234,6.1822 15.9234,9.7212 C15.9234,9.9102 15.9164,10.0982 15.8994,10.2832 C15.8754,10.5592 16.0794,10.8012 16.3544,10.8252" id="Fill-5" fill="#020203"></path>
                <path d="M12.0595,10.313 C12.1315,9.319 11.6845,8.594 11.5455,8.395 C11.3795,8.158 10.7435,7.385 9.5235,7.385 C8.5895,7.385 7.7735,7.885 7.2845,8.756 C6.9685,9.319 7.0025,9.809 7.0255,10.132 C7.0295,10.198 7.0345,10.259 7.0345,10.316 C7.0345,10.48 7.0695,10.626 7.1035,10.768 C7.1615,11.007 7.2205,11.254 7.1195,11.673 C6.6395,13.643 5.4925,15.279 5.4805,15.295 C5.3205,15.521 5.3735,15.833 5.5995,15.992 C5.8245,16.152 6.1355,16.099 6.2955,15.874 C6.3475,15.801 7.5645,14.071 8.0905,11.91 C8.2495,11.255 8.1445,10.821 8.0765,10.533 C8.0545,10.445 8.0345,10.362 8.0345,10.316 C8.0345,10.237 8.0295,10.153 8.0225,10.063 C8.0045,9.798 7.9865,9.548 8.1565,9.246 C8.3765,8.853 8.7925,8.385 9.5235,8.385 C10.2405,8.385 10.6035,8.793 10.7265,8.969 C10.7655,9.025 11.1135,9.544 11.0625,10.24 C11.0065,11.004 10.9305,11.634 10.7405,12.222 C10.5465,12.818 9.3705,15.355 8.9325,16.283 C8.8145,16.532 8.9215,16.831 9.1715,16.948 C9.2405,16.98 9.3125,16.996 9.3845,16.996 C9.5725,16.996 9.7515,16.89 9.8365,16.709 C9.9025,16.571 11.4395,13.308 11.6915,12.531 C11.9255,11.806 12.0065,11.037 12.0595,10.313" id="Fill-7" fill="#020203"></path>
                <path d="M14.0253,15.8305 C14.2363,15.8305 14.4323,15.6955 14.5013,15.4845 C15.0903,13.6645 15.2943,12.9075 15.4393,10.9025 C15.5773,9.0025 14.8943,7.2785 14.2093,6.2985 C13.7133,5.5905 12.2603,3.9445 9.4703,3.9445 C6.5093,3.9445 4.8953,5.9785 4.1973,7.1915 C3.6173,8.1985 3.6243,9.1655 3.6293,10.0185 L3.6303,10.2655 C3.6303,11.0095 3.4423,11.4175 3.2133,11.9115 C3.1583,12.0315 2.9833,12.3365 2.7593,12.7195 C2.6203,12.9575 2.7003,13.2635 2.9393,13.4025 C3.1773,13.5425 3.4833,13.4615 3.6233,13.2235 C3.8693,12.8015 4.0603,12.4625 4.1493,12.2705 C4.3633,11.8075 4.6303,11.2295 4.6303,10.2655 L4.6293,10.0115 C4.6243,9.2145 4.6193,8.4625 5.0643,7.6905 C5.7853,6.4375 7.1353,4.9445 9.4703,4.9445 C11.7903,4.9445 12.9843,6.2925 13.3893,6.8715 C13.5923,7.1615 14.5953,8.7145 14.4423,10.8305 C14.2993,12.7835 14.1013,13.4725 13.5493,15.1765 C13.4643,15.4385 13.6083,15.7205 13.8713,15.8065 C13.9223,15.8225 13.9743,15.8305 14.0253,15.8305" id="Fill-9" fill="#020203"></path>
                <path d="M0.5,4.3628 C0.776,4.3628 1,4.1388 1,3.8628 L1,1.0168 L4.5,1.0168 C4.776,1.0168 5,0.7928 5,0.5168 C5,0.2408 4.776,0.0168 4.5,0.0168 L0.5,0.0168 C0.224,0.0168 0,0.2408 0,0.5168 L0,3.8628 C0,4.1388 0.224,4.3628 0.5,4.3628" id="Fill-11" fill="#020203"></path>
                <path d="M4.5,18.2988 L1,18.2988 L1,15.4528 C1,15.1768 0.776,14.9528 0.5,14.9528 C0.224,14.9528 0,15.1768 0,15.4528 L0,18.7988 C0,19.0748 0.224,19.2988 0.5,19.2988 L4.5,19.2988 C4.776,19.2988 5,19.0748 5,18.7988 C5,18.5228 4.776,18.2988 4.5,18.2988" id="Fill-13" fill="#020203"></path>
                <g id="Group-17" transform="translate(14.476100, 0.000000)">
                    <mask id="mask-2" fill="white">
                        <use xlink:href="#path-1"></use>
                    </mask>
                    <g id="Clip-16"></g>
                    <path d="M4.5,0 L0.5,0 C0.224,0 0,0.224 0,0.5 C0,0.776 0.224,1 0.5,1 L4,1 L4,3.846 C4,4.122 4.224,4.346 4.5,4.346 C4.776,4.346 5,4.122 5,3.846 L5,0.5 C5,0.224 4.776,0 4.5,0" id="Fill-15" fill="#020203" mask="url(#mask-2)"></path>
                </g>
                <g id="Group-20" transform="translate(14.476100, 14.936500)">
                    <mask id="mask-4" fill="white">
                        <use xlink:href="#path-3"></use>
                    </mask>
                    <g id="Clip-19"></g>
                    <path d="M4.5,2.66453526e-15 C4.224,2.66453526e-15 4,0.224 4,0.5 L4,3.346 L0.5,3.346 C0.224,3.346 0,3.57 0,3.846 C0,4.122 0.224,4.346 0.5,4.346 L4.5,4.346 C4.776,4.346 5,4.122 5,3.846 L5,0.5 C5,0.224 4.776,2.66453526e-15 4.5,2.66453526e-15" id="Fill-18" fill="#020203" mask="url(#mask-4)"></path>
                </g>
            </g>
        </g>
    </g>
</svg>