<?xml version="1.0" standalone="no"?>
<!DOCTYPE svg PUBLIC "-//W3C//DTD SVG 20010904//EN"
 "http://www.w3.org/TR/2001/REC-SVG-20010904/DTD/svg10.dtd">
<svg version="1.0" xmlns="http://www.w3.org/2000/svg"
 width="101.000000pt" height="101.000000pt" viewBox="0 0 101.000000 101.000000"
 preserveAspectRatio="xMidYMid meet">

<g transform="translate(0.000000,101.000000) scale(0.100000,-0.100000)"
fill="#000000" stroke="none">
<path d="M436 859 c-72 -57 -76 -180 -7 -209 95 -39 178 130 105 211 -22 25
-65 24 -98 -2z"/>
<path d="M664 786 c-98 -43 -98 -226 0 -226 24 0 41 9 66 35 29 30 34 43 38
93 4 56 3 60 -28 85 -36 31 -35 31 -76 13z"/>
<path d="M228 744 c-35 -18 -68 -82 -68 -129 0 -27 8 -44 29 -66 33 -33 50
-35 90 -14 31 15 71 86 71 124 0 30 -26 78 -49 91 -26 13 -40 12 -73 -6z"/>
<path d="M354 517 c-161 -82 -194 -114 -194 -187 0 -71 44 -100 158 -104 74
-2 105 -11 134 -39 66 -63 117 -73 166 -32 62 52 65 100 14 225 -17 41 -38 96
-47 123 -17 48 -52 78 -92 77 -10 -1 -73 -29 -139 -63z"/>
<path d="M750 547 c-64 -32 -81 -172 -26 -209 18 -13 70 -8 90 7 60 46 77 145
31 190 -27 28 -57 31 -95 12z"/>
</g>
</svg>
