<svg xmlns="http://www.w3.org/2000/svg" xml:space="preserve" viewBox="0 0 24 24"><path fill="#000000" d="M9.822 19.234c-.194-.177-.39-.355-.55-.55-.04-.05-.106-.24-.156-.376C8.89 17.676 8.468 16.5 7 16.5s-1.89 1.176-2.116 1.807c-.05.137-.117.326-.155.376-.162.197-.358.374-.552.551-.545.5-1.163 1.067-1.177 2.01-.007.506.15.937.456 1.247.328.333.81.509 1.39.509.651 0 1.057-.217 1.383-.39.266-.142.458-.245.77-.245.314 0 .506.103.772.244.326.174.732.391 1.383.391.58 0 1.061-.176 1.39-.51.305-.309.463-.74.456-1.247-.014-.942-.632-1.51-1.178-2.009z"/><path fill="#000000" d="M9.832 21.789c-.172.174-.464.211-.678.211-.401 0-.627-.12-.913-.273-.318-.17-.678-.362-1.241-.362-.563 0-.924.193-1.242.362-.285.152-.511.273-.912.273-.214 0-.506-.037-.678-.211-.115-.117-.171-.295-.168-.532.007-.51.399-.87.853-1.285a6.56 6.56 0 0 0 .648-.655c.146-.177.229-.407.324-.672C6.073 17.953 6.29 17.5 7 17.5c.711 0 .927.454 1.175 1.145.095.266.177.495.323.673.191.232.42.444.649.654.454.415.846.775.853 1.285.003.236-.053.415-.168.532z"/><path fill="#000000" d="M9.754 20.6a.538.538 0 0 1-.11.189c-.172.174-.463.211-.678.211-.4 0-.627-.12-.912-.273-.318-.17-.679-.362-1.242-.362s-.923.193-1.241.362c-.286.152-.512.273-.912.273-.175 0-.388-.044-.559-.148a.998.998 0 0 0-.1.405c-.003.237.053.415.168.532.172.174.464.211.678.211.4 0 .627-.12.912-.273.318-.17.679-.362 1.242-.362s.923.193 1.241.362c.286.152.512.273.913.273.214 0 .506-.037.678-.211.115-.117.171-.296.168-.532-.004-.247-.1-.457-.246-.656z" opacity=".1"/><path fill="#000000" d="M11.786 15c-.782 0-1.528.82-1.735 1.907-.035.18-.051.356-.051.52 0 .406.095.766.275 1.043.22.337.562.53.939.53.782 0 1.528-.82 1.735-1.906.035-.182.051-.357.051-.522 0-.405-.095-.766-.275-1.042a1.115 1.115 0 0 0-.939-.53z"/><path fill="#000000" d="M11.967 16.907c-.126.657-.536 1.093-.753 1.093-.017 0-.051 0-.101-.077-.072-.11-.113-.29-.113-.495 0-.106.011-.218.033-.334.126-.658.536-1.094.753-1.094.017 0 .051 0 .101.077.072.11.113.29.113.494 0 .106-.011.219-.033.336z"/><path fill="#000000" d="M11.887 16.077c-.05-.077-.084-.077-.1-.077-.008 0-.019.01-.027.01-.005.076-.007.15-.022.23-.122.635-.506 1.055-.728 1.083-.002.034-.01.072-.01.105 0 .205.041.385.113.495.05.077.084.077.1.077.218 0 .628-.436.754-1.093.022-.117.033-.23.033-.336 0-.204-.041-.384-.113-.494z" opacity=".1"/><path fill="#000000" d="M8.934 15.5c.912 0 1.798-.95 2.017-2.161v-.001c.028-.16.044-.314.049-.465.014-.606-.164-1.13-.501-1.476A1.278 1.278 0 0 0 9.566 11c-.912 0-1.798.95-2.017 2.162-.028.16-.044.314-.049.465-.014.606.164 1.13.501 1.476.254.26.577.397.933.397z"/><path fill="#000000" d="M8.533 13.339c.139-.766.66-1.339 1.033-1.339.084 0 .153.03.217.096.143.147.224.428.217.752a2.054 2.054 0 0 1-.033.314c-.17.938-.904 1.598-1.25 1.242-.143-.147-.224-.428-.217-.752.003-.1.014-.206.033-.313z"/><path fill="#000000" d="M9.783 12.096c-.043-.045-.096-.052-.148-.066.001.032.011.056.01.088a2.054 2.054 0 0 1-.032.315c-.149.817-.725 1.423-1.1 1.33.012.272.078.513.204.641.346.356 1.08-.304 1.25-1.242.02-.108.03-.213.033-.314.007-.324-.074-.605-.217-.752z" opacity=".1"/><path fill="#000000" d="M3.725 18.47c.18-.277.275-.637.275-1.042 0-.165-.016-.34-.05-.522C3.741 15.82 2.995 15 2.213 15c-.377 0-.719.193-.939.53-.18.276-.275.637-.275 1.041 0 .166.016.341.05.522C1.259 18.182 2.005 19 2.787 19c.377 0 .719-.193.939-.53z"/><path fill="#000000" d="M2.887 17.923c-.05.077-.084.077-.1.077-.218 0-.628-.436-.754-1.093A1.824 1.824 0 0 1 2 16.57c0-.204.041-.384.113-.494.05-.077.084-.077.1-.077.218 0 .628.436.754 1.093.022.117.033.23.033.336 0 .204-.041.384-.113.494z"/><path fill="#000000" d="M2.967 17.093c-.1-.52-.374-.891-.593-1.028.078.155.148.326.187.528.022.117.033.23.033.336 0 .204-.041.384-.113.494-.05.077-.085.077-.101.077a.349.349 0 0 1-.16-.065c.177.346.416.565.566.565.017 0 .051 0 .101-.077.072-.11.113-.29.113-.494 0-.107-.011-.219-.033-.336z" opacity=".1"/><path fill="#000000" d="M3.049 13.339c.22 1.212 1.105 2.161 2.017 2.161.356 0 .68-.137.933-.397.337-.346.515-.87.5-1.478a3.206 3.206 0 0 0-.048-.464C6.231 11.95 5.346 11 4.434 11c-.356 0-.68.137-.933.397-.337.346-.515.87-.5 1.478.004.149.02.304.048.463z"/><path fill="#000000" d="M4.217 12.096c.347-.356 1.08.305 1.25 1.242.02.108.03.213.033.312.007.326-.074.607-.217.754-.348.358-1.08-.303-1.25-1.242A2.054 2.054 0 0 1 4 12.85c-.007-.326.074-.607.217-.754z"/><path fill="#000000" d="M5.467 13.338c-.084-.464-.306-.859-.551-1.097a2.267 2.267 0 0 1 .125.66c.008.325-.073.606-.216.753-.176.18-.449.1-.698-.142.26.743.853 1.203 1.156.892.143-.147.224-.428.217-.754a2.054 2.054 0 0 0-.033-.312z" opacity=".1"/><path fill="#000000" d="M19.822 9.234c-.194-.177-.39-.355-.55-.55-.04-.05-.106-.24-.156-.376C18.89 7.676 18.468 6.5 17 6.5s-1.89 1.176-2.116 1.807c-.05.137-.117.326-.155.376-.162.197-.358.374-.552.551-.545.5-1.163 1.067-1.177 2.01-.007.506.15.937.456 1.247.328.333.81.509 1.39.509.651 0 1.057-.217 1.383-.39.266-.142.458-.245.77-.245.314 0 .506.103.772.244.326.174.732.391 1.383.391.58 0 1.061-.176 1.39-.51.305-.309.463-.74.456-1.247-.014-.942-.632-1.51-1.178-2.009z"/><path fill="#000000" d="M19.832 11.789c-.172.174-.464.211-.678.211-.401 0-.627-.12-.913-.273-.318-.17-.678-.362-1.241-.362-.563 0-.924.193-1.242.362-.285.152-.511.273-.912.273-.214 0-.506-.037-.678-.211-.115-.117-.171-.295-.168-.532.007-.51.399-.87.853-1.285a6.56 6.56 0 0 0 .648-.655c.146-.177.229-.407.324-.672C16.073 7.953 16.29 7.5 17 7.5c.711 0 .927.454 1.175 1.145.095.266.177.495.323.673.191.232.42.444.649.654.454.415.846.775.853 1.285.003.236-.053.415-.168.532z"/><path fill="#000000" d="M19.754 10.6a.538.538 0 0 1-.11.189c-.172.174-.463.211-.678.211-.4 0-.627-.12-.912-.273-.318-.17-.679-.362-1.241-.362-.564 0-.924.193-1.242.362-.286.152-.512.273-.912.273-.175 0-.388-.044-.559-.148a.998.998 0 0 0-.1.405c-.003.237.053.415.168.532.172.174.464.211.678.211.4 0 .627-.12.912-.273.318-.17.679-.362 1.242-.362s.923.193 1.241.362c.286.152.512.273.913.273.214 0 .506-.037.678-.211.115-.117.171-.296.168-.532-.004-.247-.1-.457-.246-.656z" opacity=".1"/><path fill="#000000" d="M21.786 5c-.782 0-1.528.82-1.735 1.907-.035.18-.051.356-.051.52 0 .406.095.766.275 1.043.22.337.562.53.939.53.782 0 1.528-.82 1.735-1.906.035-.182.051-.357.051-.522 0-.405-.095-.766-.275-1.042a1.115 1.115 0 0 0-.939-.53z"/><path fill="#000000" d="M21.967 6.907C21.84 7.564 21.43 8 21.214 8c-.017 0-.051 0-.101-.077-.072-.11-.113-.29-.113-.495 0-.106.011-.218.033-.334.126-.658.536-1.094.753-1.094.017 0 .051 0 .101.077.072.11.113.29.113.494 0 .106-.011.219-.033.336z"/><path fill="#000000" d="M21.887 6.077C21.837 6 21.803 6 21.787 6c-.008 0-.019.01-.027.01-.005.076-.007.15-.022.23-.122.635-.506 1.055-.728 1.083-.002.034-.01.072-.01.105 0 .205.041.385.113.495.05.077.084.077.1.077.218 0 .628-.436.754-1.093.022-.117.033-.23.033-.336 0-.204-.041-.384-.113-.494z" opacity=".1"/><path fill="#000000" d="M18.934 5.5c.912 0 1.798-.95 2.017-2.161v-.001c.028-.16.044-.314.049-.465.014-.606-.164-1.13-.501-1.476A1.278 1.278 0 0 0 19.566 1c-.912 0-1.798.95-2.017 2.162-.028.16-.044.314-.049.465-.014.606.164 1.13.501 1.476.254.26.577.397.933.397z"/><path fill="#000000" d="M18.533 3.339c.139-.766.66-1.339 1.033-1.339.084 0 .153.03.217.096.143.147.224.428.217.752a2.054 2.054 0 0 1-.033.314c-.17.938-.904 1.598-1.25 1.242-.143-.147-.224-.428-.217-.752.003-.1.014-.206.033-.313z"/><path fill="#000000" d="M19.783 2.096c-.043-.045-.096-.052-.148-.066.001.032.011.056.01.088a2.054 2.054 0 0 1-.032.315c-.149.817-.725 1.423-1.1 1.33.012.272.078.513.204.641.346.356 1.08-.304 1.25-1.242.02-.108.03-.213.033-.314.007-.324-.074-.605-.217-.752z" opacity=".1"/><path fill="#000000" d="M13.725 8.47c.18-.277.275-.637.275-1.042 0-.165-.016-.34-.05-.522C13.741 5.82 12.995 5 12.213 5c-.377 0-.719.193-.939.53-.18.276-.275.637-.275 1.041 0 .166.016.341.05.522C11.259 8.182 12.005 9 12.787 9c.377 0 .719-.193.939-.53z"/><path fill="#000000" d="M12.887 7.923c-.05.077-.084.077-.1.077-.218 0-.628-.436-.754-1.093A1.824 1.824 0 0 1 12 6.57c0-.204.041-.384.113-.494.05-.077.084-.077.1-.077.218 0 .628.436.754 1.093.022.117.033.23.033.336 0 .204-.041.384-.113.494z"/><path fill="#000000" d="M12.967 7.093c-.1-.52-.374-.891-.593-1.028.078.155.148.326.187.528.022.117.033.23.033.336 0 .204-.041.384-.113.494-.05.077-.085.077-.101.077a.349.349 0 0 1-.16-.065c.177.346.416.565.566.565.017 0 .051 0 .101-.077.072-.11.113-.29.113-.494 0-.107-.011-.219-.033-.336z" opacity=".1"/><path fill="#000000" d="M13.049 3.339c.22 1.212 1.105 2.161 2.017 2.161.356 0 .68-.137.933-.397.337-.346.515-.87.5-1.478a3.206 3.206 0 0 0-.048-.464C16.231 1.95 15.346 1 14.434 1c-.356 0-.68.137-.933.397-.337.346-.515.87-.5 1.478.004.149.02.304.048.463z"/><path fill="#000000" d="M14.217 2.096c.347-.356 1.08.305 1.25 1.242.02.108.03.213.033.312.007.326-.074.607-.217.754-.348.358-1.08-.303-1.25-1.242A2.054 2.054 0 0 1 14 2.85c-.007-.326.074-.607.217-.754z"/><path fill="#000000" d="M15.467 3.338c-.084-.464-.306-.859-.551-1.097a2.267 2.267 0 0 1 .125.66c.008.325-.073.606-.216.753-.176.18-.449.1-.698-.142.26.743.853 1.203 1.156.892.143-.147.224-.428.217-.754a2.054 2.054 0 0 0-.033-.312z" opacity=".1"/><linearGradient id="a" x1="4.545" x2="19.3" y1="8.483" y2="15.363" gradientUnits="userSpaceOnUse"><stop offset="0" style="stop-color:#fff;stop-opacity:.2"/><stop offset="1" style="stop-color:#fff;stop-opacity:0"/></linearGradient><path fill="url(#a)" d="M9.822 19.234c-.194-.177-.39-.355-.55-.55-.04-.05-.106-.24-.156-.376C8.89 17.676 8.468 16.5 7 16.5s-1.89 1.176-2.116 1.807c-.05.137-.117.326-.155.376-.162.197-.358.374-.552.551-.545.5-1.163 1.067-1.177 2.01-.007.506.15.937.456 1.247.328.333.81.509 1.39.509.651 0 1.057-.217 1.383-.39.266-.142.458-.245.77-.245.314 0 .506.103.772.244.326.174.732.391 1.383.391.58 0 1.061-.176 1.39-.51.305-.309.463-.74.456-1.247-.014-.942-.632-1.51-1.178-2.009zM11.786 15c-.782 0-1.528.82-1.735 1.907-.035.18-.051.356-.051.52 0 .406.095.766.275 1.043.22.337.562.53.939.53.782 0 1.528-.82 1.735-1.906.035-.182.051-.357.051-.522 0-.405-.095-.766-.275-1.042a1.115 1.115 0 0 0-.939-.53zm-2.852.5c.912 0 1.798-.95 2.017-2.161v-.001c.028-.16.044-.314.049-.465.014-.606-.164-1.13-.501-1.476A1.278 1.278 0 0 0 9.566 11c-.912 0-1.798.95-2.017 2.162-.028.16-.044.314-.049.465-.014.606.164 1.13.501 1.476.254.26.577.397.933.397zm-5.21 2.97c.181-.277.276-.637.276-1.042 0-.165-.016-.34-.05-.522C3.741 15.82 2.995 15 2.213 15c-.377 0-.719.193-.939.53-.18.276-.275.637-.275 1.041 0 .166.016.341.05.522C1.259 18.182 2.005 19 2.787 19c.377 0 .719-.193.939-.53zm-.675-5.131c.22 1.212 1.105 2.161 2.017 2.161.356 0 .68-.137.933-.397.337-.346.515-.87.5-1.478a3.206 3.206 0 0 0-.048-.464C6.231 11.95 5.346 11 4.434 11c-.356 0-.68.137-.933.397-.337.346-.515.87-.5 1.478.004.149.02.304.048.463zm16.773-4.105c-.194-.177-.39-.355-.55-.55-.04-.05-.106-.24-.156-.376C18.89 7.676 18.468 6.5 17 6.5s-1.89 1.176-2.116 1.807c-.05.137-.117.326-.155.376-.162.197-.358.374-.552.551-.545.5-1.163 1.067-1.177 2.01-.007.506.15.937.456 1.247.328.333.81.509 1.39.509.651 0 1.057-.217 1.383-.39.266-.142.458-.245.77-.245.314 0 .506.103.772.244.326.174.732.391 1.383.391.58 0 1.061-.176 1.39-.51.305-.309.463-.74.456-1.247-.014-.942-.632-1.51-1.178-2.009zm2.903-3.704a1.115 1.115 0 0 0-.939-.53c-.782 0-1.528.82-1.735 1.907-.035.18-.051.356-.051.52 0 .406.095.766.275 1.043.22.337.562.53.939.53.782 0 1.528-.82 1.735-1.906.035-.182.051-.357.051-.522 0-.405-.095-.766-.275-1.042zm-3.791-.03c.912 0 1.798-.95 2.017-2.161v-.001c.028-.16.044-.314.049-.465.014-.606-.164-1.13-.501-1.476A1.278 1.278 0 0 0 19.566 1c-.912 0-1.798.95-2.017 2.162-.028.16-.044.314-.049.465-.014.606.164 1.13.501 1.476.254.26.577.397.933.397zM11.05 7.094C11.258 8.18 12.004 9 12.786 9c.377 0 .719-.193.939-.53.18-.277.275-.637.275-1.042 0-.165-.016-.34-.05-.522C13.741 5.82 12.995 5 12.213 5c-.377 0-.719.193-.939.53-.18.276-.275.637-.275 1.041 0 .166.016.341.05.522zm1.998-3.755c.22 1.212 1.105 2.161 2.017 2.161.356 0 .68-.137.933-.397.337-.346.515-.87.5-1.478a3.206 3.206 0 0 0-.048-.464C16.231 1.95 15.346 1 14.434 1c-.356 0-.68.137-.933.397-.337.346-.515.87-.5 1.478.004.149.02.304.048.463z"/></svg>